<?xml version="1.0" encoding="UTF-8" standalone="no"?>
<svg
   xmlns:dc="http://purl.org/dc/elements/1.1/"
   xmlns:cc="http://creativecommons.org/ns#"
   xmlns:rdf="http://www.w3.org/1999/02/22-rdf-syntax-ns#"
   xmlns:svg="http://www.w3.org/2000/svg"
   xmlns="http://www.w3.org/2000/svg"
   xmlns:sodipodi="http://sodipodi.sourceforge.net/DTD/sodipodi-0.dtd"
   xmlns:inkscape="http://www.inkscape.org/namespaces/inkscape"
   width="43.204178mm"
   height="36.204178mm"
   viewBox="0 0 43.204178 36.204178"
   version="1.1"
   id="svg29"
   inkscape:version="1.0.1 (3bc2e813f5, 2020-09-07)"
   sodipodi:docname="Fundo.svg">
  <defs
     id="defs23" />
  <sodipodi:namedview
     id="base"
     pagecolor="#ffffff"
     bordercolor="#666666"
     borderopacity="1.0"
     inkscape:pageopacity="0.0"
     inkscape:pageshadow="2"
     inkscape:zoom="2.4857752"
     inkscape:cx="84.502842"
     inkscape:cy="51.138784"
     inkscape:document-units="mm"
     inkscape:current-layer="layer1"
     inkscape:document-rotation="0"
     showgrid="false"
     fit-margin-top="0"
     fit-margin-left="0"
     fit-margin-right="0"
     fit-margin-bottom="0"
     inkscape:window-width="1366"
     inkscape:window-height="705"
     inkscape:window-x="-8"
     inkscape:window-y="-8"
     inkscape:window-maximized="1" />
  <metadata
     id="metadata26">
    <rdf:RDF>
      <cc:Work
         rdf:about="">
        <dc:format>image/svg+xml</dc:format>
        <dc:type
           rdf:resource="http://purl.org/dc/dcmitype/StillImage" />
        <dc:title></dc:title>
      </cc:Work>
    </rdf:RDF>
  </metadata>
  <g
     inkscape:label="Layer 1"
     inkscape:groupmode="layer"
     id="layer1"
     transform="translate(-83.47529,-181.46934)">
    <path
       inkscape:connector-curvature="0"
       id="path40"
       style="fill:none;stroke:#ff0000;stroke-width:0.00105833;stroke-linecap:butt;stroke-linejoin:miter;stroke-miterlimit:10;stroke-dasharray:none;stroke-opacity:1"
       d="m 86.577382,217.67299 h 9.499999 c 0.05469,0 0.101562,-0.043 0.101562,-0.10156 v -3 c 0,0.0547 -0.04297,0.10156 -0.101562,0.10156 h 5.999999 c -0.0547,0 -0.10156,-0.043 -0.10156,-0.10156 v 3 c 0,0.0547 0.043,0.10156 0.10156,0.10156 h 6 c 0.0547,0 0.10156,-0.043 0.10156,-0.10156 v -3 c 0,0.0547 -0.043,0.10156 -0.10156,0.10156 h 6 c -0.0547,0 -0.10156,-0.043 -0.10156,-0.10156 v 3 c 0,0.0547 0.043,0.10156 0.10156,0.10156 h 9.5 3 c 0.0547,0 0.10156,-0.043 0.10156,-0.10156 v -3 -6 c 0,-0.0547 -0.043,-0.10156 -0.10156,-0.10156 h -3 c 0.0547,0 0.10156,0.043 0.10156,0.10156 v -6 c 0,0.0547 -0.043,0.10156 -0.10156,0.10156 h 3 c 0.0547,0 0.10156,-0.043 0.10156,-0.10156 v -6 c 0,-0.0547 -0.043,-0.10156 -0.10156,-0.10156 h -3 c 0.0547,0 0.10156,0.043 0.10156,0.10156 v -6 c 0,0.0547 -0.043,0.10156 -0.10156,0.10156 h 3 c 0.0547,0 0.10156,-0.043 0.10156,-0.10156 v -6 -3 c 0,-0.0547 -0.043,-0.10156 -0.10156,-0.10156 h -3 -9.5 c -0.0547,0 -0.10156,0.043 -0.10156,0.10156 v 3 c 0,-0.0547 0.043,-0.10156 0.10156,-0.10156 h -6 c 0.0547,0 0.10156,0.043 0.10156,0.10156 v -3 c 0,-0.0547 -0.043,-0.10156 -0.10156,-0.10156 h -6 c -0.0547,0 -0.10156,0.043 -0.10156,0.10156 v 3 c 0,-0.0547 0.043,-0.10156 0.10156,-0.10156 h -5.999999 c 0.05469,0 0.101562,0.043 0.101562,0.10156 v -3 c 0,-0.0547 -0.04297,-0.10156 -0.101562,-0.10156 h -9.499999 -3 c -0.05469,0 -0.101563,0.043 -0.101563,0.10156 v 3 6 c 0,0.0547 0.04297,0.10156 0.101563,0.10156 h 3 c -0.05469,0 -0.101563,-0.043 -0.101563,-0.10156 v 6 c 0,-0.0547 0.04297,-0.10156 0.101563,-0.10156 h -3 c -0.05469,0 -0.101563,0.043 -0.101563,0.10156 v 6 c 0,0.0547 0.04297,0.10156 0.101563,0.10156 h 3 c -0.05469,0 -0.101563,-0.043 -0.101563,-0.10156 v 6 c 0,-0.0547 0.04297,-0.10156 0.101563,-0.10156 h -3 c -0.05469,0 -0.101563,0.043 -0.101563,0.10156 v 6 l 10e-7,3 c 0,0.0547 0.04297,0.10156 0.101562,0.10156 h 3" />
  </g>
</svg>
